<mxfile host="www.draw.io" modified="2019-12-18T08:04:48.169Z" agent="Mozilla/5.0 (Macintosh; Intel Mac OS X 10_14_6) AppleWebKit/537.36 (KHTML, like Gecko) Chrome/78.0.3904.108 Safari/537.36" etag="nXuIEZXqJsvE4gLlxQi_" version="12.4.3" type="github" pages="1">
  <diagram id="cne5-k6CmcD2D5t_42F5" name="Page-1">
    <mxGraphModel dx="905" dy="522" grid="1" gridSize="10" guides="1" tooltips="1" connect="1" arrows="1" fold="1" page="1" pageScale="1" pageWidth="827" pageHeight="1169" math="0" shadow="0">
      <root>
        <mxCell id="0"/>
        <mxCell id="1" parent="0"/>
        <mxCell id="u1wV9quo1xVB0xNVkKT_-1" value="GW" style="rounded=1;whiteSpace=wrap;html=1;" vertex="1" parent="1">
          <mxGeometry x="60" y="140" width="120" height="60" as="geometry"/>
        </mxCell>
        <mxCell id="u1wV9quo1xVB0xNVkKT_-2" value="UserService&lt;br&gt;tag:gray" style="rounded=1;whiteSpace=wrap;html=1;" vertex="1" parent="1">
          <mxGeometry x="260" y="80" width="120" height="60" as="geometry"/>
        </mxCell>
        <mxCell id="u1wV9quo1xVB0xNVkKT_-4" value="&lt;span style=&quot;white-space: normal&quot;&gt;UserService&lt;/span&gt;&lt;br style=&quot;white-space: normal&quot;&gt;" style="rounded=1;whiteSpace=wrap;html=1;" vertex="1" parent="1">
          <mxGeometry x="260" y="220" width="120" height="60" as="geometry"/>
        </mxCell>
        <mxCell id="u1wV9quo1xVB0xNVkKT_-5" value="&lt;span style=&quot;white-space: normal&quot;&gt;UserService&lt;/span&gt;&lt;br style=&quot;white-space: normal&quot;&gt;&lt;span style=&quot;white-space: normal&quot;&gt;tag:blue&lt;/span&gt;" style="rounded=1;whiteSpace=wrap;html=1;" vertex="1" parent="1">
          <mxGeometry x="260" y="150" width="120" height="60" as="geometry"/>
        </mxCell>
        <mxCell id="u1wV9quo1xVB0xNVkKT_-6" value="BikeService&lt;br&gt;tag:blue" style="rounded=1;whiteSpace=wrap;html=1;" vertex="1" parent="1">
          <mxGeometry x="470" y="80" width="120" height="60" as="geometry"/>
        </mxCell>
        <mxCell id="u1wV9quo1xVB0xNVkKT_-7" value="BikeService" style="rounded=1;whiteSpace=wrap;html=1;" vertex="1" parent="1">
          <mxGeometry x="470" y="220" width="120" height="60" as="geometry"/>
        </mxCell>
        <mxCell id="u1wV9quo1xVB0xNVkKT_-8" value="BikeService&lt;br&gt;&lt;span style=&quot;white-space: normal&quot;&gt;tag:gray&lt;/span&gt;" style="rounded=1;whiteSpace=wrap;html=1;" vertex="1" parent="1">
          <mxGeometry x="470" y="150" width="120" height="60" as="geometry"/>
        </mxCell>
      </root>
    </mxGraphModel>
  </diagram>
</mxfile>
